<?xml version="1.0" encoding="utf-8"?>
<!-- Generator: Adobe Illustrator 22.1.0, SVG Export Plug-In . SVG Version: 6.00 Build 0)  -->
<svg version="1.1" xmlns="http://www.w3.org/2000/svg" xmlns:xlink="http://www.w3.org/1999/xlink" x="0px" y="0px"
	 viewBox="0 0 2272 1872" style="enable-background:new 0 0 2272 1872;" xml:space="preserve">
<style type="text/css">
	.st0{fill:#FCD96A;}
	.st1{fill:#B79229;}
	.st2{fill:#EC5946;}
	.st3{fill:#FF8C83;}
	.st4{fill:#A83B33;}
	.st5{fill:#F6DCAC;}
	.st6{fill:#FFFFFF;}
	.st7{fill:#C4A16A;}
	.st8{fill:#273941;}
	.st9{fill:#FFF5E6;}
	.st10{fill:#151F23;}
	.st11{fill:#4D6C77;}
	.st12{fill:#AA2F26;}
	.st13{fill:#BF3737;}
	.st14{fill:#771C19;}
	.st15{fill:#FFB6B0;}
	.st16{font-family:'Staatliches-Regular';}
	.st17{font-size:160.8571px;}
</style>
<g id="Background">
	<g>
		<g>
			<rect x="0" class="st0" width="2272" height="1872"/>
		</g>
	</g>
	<g>
		<g>
			<rect x="0" class="st0" width="2272" height="1872"/>
		</g>
	</g>
	<g id="Layer_1_1_">
	</g>
	<g id="Layer_2">
	</g>
	<g id="Layer_1_2_">
	</g>
	<g id="Layer_2_1_">
	</g>
</g>
<g id="object">
	<g>
		<path class="st1" d="M1818.2,1117c5.4-35,8.2-70.6,8.2-106.6c0-93.1-18.2-183.4-54.2-268.5c-34.7-82.1-84.5-155.9-147.8-219.3
			c-3.4-3.4-6.7-6.7-10.2-9.9L1724,366.9l-7.5-12.4c-1.1-1.9-28.3-46.2-77.3-95.2c-28.9-28.9-59.4-53.4-90.8-72.9
			c-39.6-24.7-80.7-41.4-122.1-49.7l-13.3-2.7l-147.3,198.5c-42.2-8-85.3-12-129-12c-93.1,0-183.4,18.2-268.5,54.2
			c-82.1,34.7-155.9,84.5-219.3,147.8C585.5,586,535.8,659.7,501,741.9c-36,85.1-54.2,175.4-54.2,268.5c0,35.3,2.6,70.3,7.9,104.7
			c-34.1,8.1-68.3,17-102.6,26.8c0,0,133.4,325.7,142,331.2c1.9,1.2,29.1-4.6,78.4-12.7L451,1644.2c-15.4-3.8-32.3,1.7-42.4,15.1
			l-8.3,11c-6.6,8.7-9.4,19.5-7.8,30.3c1.5,10.8,7.2,20.4,15.9,27l64.4,48.5c8.7,6.6,19.5,9.3,30.3,7.8c0,0,0,0,0,0
			c10.8-1.5,20.4-7.2,27-15.9l8.3-11c6.6-8.7,9.4-19.5,7.8-30.3c-1-7-3.7-13.5-7.9-19L687,1533.5c54.2,46.7,115,84.4,181.1,112.4
			c85.1,36,175.4,54.2,268.5,54.2c93.1,0,183.4-18.2,268.5-54.2c82.1-34.7,155.9-84.5,219.3-147.8c13.6-13.6,26.6-27.7,38.9-42.3
			c67.6,10.3,105,18.6,107.2,17.2c8.6-5.5,142-331.2,142-331.2C1881,1132.8,1849.6,1124.6,1818.2,1117z M1461.2,401.5L1461.2,401.5
			l92.6-128.2L1461.2,401.5z"/>
		<g>
			<g>
				<circle class="st2" cx="1136.6" cy="943.2" r="660.1"/>
			</g>
			<path class="st3" d="M1795.1,989.9c1.1-15.4,1.6-30.9,1.6-46.6c0-55.6-6.9-109.6-19.8-161.1l-891.3,515.5L1795.1,989.9z"/>
			<path class="st4" d="M1478.3,378.4l-854.9,980c37.2,45.9,80.4,86.8,128.5,121.3l957.2-865.3
				C1653.3,517.5,1573.7,436.2,1478.3,378.4z"/>
			<path class="st2" d="M1136.6,283.1c-364.6,0-660.1,295.5-660.1,660.1c0,130.4,37.8,251.9,103.1,354.3l792.9-971
				C1299.2,298.5,1219.7,283.1,1136.6,283.1z"/>
			<path class="st4" d="M1132.3,1005c-197.9-4.5-418.3,10-644.5,60.4c24.5,130.9,87.6,248.1,177,339.5
				c110.3-14.3,270.1-28.5,467.5-25.3c202-3.3,364.6,11.7,475.1,26.3c89.5-91.1,152.8-208.1,177.6-338.7
				C1555.9,1015.4,1332.6,1000.5,1132.3,1005z"/>
			<g>
				<polyline class="st4" points="944.3,1414.5 655.4,1414.5 655.4,1403.9 944.3,1403.9 				"/>
				<polyline class="st4" points="975.1,1457.4 686.8,1457.4 686.8,1446.8 975.1,1446.8 				"/>
				<rect x="796.1" y="1527.6" class="st4" width="179" height="10.6"/>
				<polyline class="st4" points="989.7,1500.3 752.1,1500.3 752.1,1489.7 989.7,1489.7 				"/>
				<rect x="876.3" y="1565.5" class="st4" width="113.4" height="10.6"/>
			</g>
			<g>
				<polyline class="st4" points="1324.1,1414.5 1613,1414.5 1613,1403.9 1324.1,1403.9 				"/>
				<polyline class="st4" points="1293.3,1457.4 1581.6,1457.4 1581.6,1446.8 1293.3,1446.8 				"/>
				<rect x="1293.3" y="1527.6" class="st4" width="179" height="10.6"/>
				<polyline class="st4" points="1278.7,1500.3 1516.3,1500.3 1516.3,1489.7 1278.7,1489.7 				"/>
				<rect x="1278.7" y="1565.5" class="st4" width="113.4" height="10.6"/>
			</g>
			<path d="M1772.2,674.7c-34.7-82.1-84.5-155.9-147.8-219.3c-63.3-63.3-137.1-113.1-219.3-147.8c-85.1-36-175.4-54.2-268.5-54.2
				s-183.4,18.2-268.5,54.2c-82.1,34.7-155.9,84.5-219.3,147.8C585.5,518.8,535.8,592.6,501,674.7c-36,85.1-54.2,175.4-54.2,268.5
				s18.2,183.4,54.2,268.5c34.7,82.1,84.5,155.9,147.8,219.3c63.3,63.3,137.1,113.1,219.3,147.8c85.1,36,175.4,54.2,268.5,54.2
				s183.4-18.2,268.5-54.2c82.1-34.7,155.9-84.5,219.3-147.8c63.3-63.3,113.1-137.1,147.8-219.3c36-85.1,54.2-175.4,54.2-268.5
				S1808.2,759.8,1772.2,674.7z M1136.6,1603.3c-364.6,0-660.1-295.5-660.1-660.1S772,283.1,1136.6,283.1s660.1,295.5,660.1,660.1
				S1501.2,1603.3,1136.6,1603.3z"/>
			<g>
				<path d="M1716.4,287.4c-1.1-1.9-28.3-46.2-77.3-95.2c-28.9-28.9-59.4-53.4-90.8-72.9c-39.6-24.7-80.7-41.4-122.1-49.7l-13.3-2.7
					l-153.4,206.7c-60.1,19.3-143.7,48.9-256.4,94c0,0,122.6-38.7,236.3-66.8l-32.9,44.4c-60.3,19.3-144.7,49.1-259,94.8
					c0,0,124.3-39.3,238.7-67.4l-44,59.3c-57.2,19.1-132,46.3-227.9,84.6c0,0,104.3-32.9,209.7-60.1l-39,52.6
					c-60.5,19.3-145.7,49.3-261.8,95.7c0,0,126.2-39.9,241.3-68l-34.8,46.9c-61.2,18.8-152.2,50.2-281.6,101.9
					c0,0,140.2-44.3,259.8-72.5l-44.4,59.9c-61,18.1-156.4,50.3-297.7,106.8c0,0,152.3-48.1,274.9-76l-27.1,36.6
					c-58.8,16.5-160.2,49.3-320.5,113.4c0,0,170.9-54,296.2-80.7l-37.8,50.9c-49.4,12.1-157.3,43.5-354.7,122.4
					c0,0,202.7-64,328.5-87.1l-37.3,50.3c-50,14.1-143.5,45.2-299.2,112.4c0,0,161.1-54.3,273.9-78.3l-143,192.7l29.8,24.8
					c17.5,14.6,29.6,41.2,28.8,63.2c0,1.2-0.1,2.2-0.2,3.1c-0.1,1.5-0.4,3-0.7,4.6c-0.1,0.4-0.2,0.9-0.3,1.3
					c-0.3,1.1-0.6,2.3-0.9,3.4c-0.1,0.3-0.2,0.5-0.3,0.8c-0.5,0.6-1,1.3-1.5,2L451,1577.1c-15.4-3.8-32.3,1.7-42.4,15.1l-8.3,11
					c-6.6,8.7-9.4,19.5-7.8,30.3c1.5,10.8,7.2,20.4,15.9,27l64.4,48.5c8.7,6.6,19.5,9.3,30.3,7.8c0,0,0,0,0,0
					c10.8-1.5,20.4-7.2,27-15.9l8.3-11c6.6-8.7,9.4-19.5,7.8-30.3c-1-7-3.7-13.5-7.9-19l261.6-306.4c0.8-0.9,1.5-1.8,2.2-2.9
					c0.2-0.3,0.4-0.6,0.6-1c0.1-0.2,0.2-0.3,0.3-0.5c32.1-22.9,88.3,13.3,101.5,22.4l16.5,13.9L1724,299.8L1716.4,287.4z
					 M917.4,1335.3c-22.7-16-89.8-56.4-132-18.8c-0.1,0.3-0.1,0.6-0.2,1c0,0.1,0,0.1-0.1,0.2c-0.1,0.2-0.2,0.5-0.3,0.7
					c0,0.1-0.1,0.2-0.1,0.3c-0.1,0.2-0.2,0.4-0.3,0.6c-0.1,0.1-0.1,0.2-0.2,0.2c-0.2,0.3-0.4,0.5-0.6,0.8l-83.8,98.2l-68.6,80.4
					l-23.3,27.3l-67.6,79.2l0,0l-29.7,34.8c-0.4,0.5-0.9,1-1.3,1.4c-0.4,0.4-0.8,0.7-1.2,1.1l9.4,7.1c8.6,6.5,10.3,18.7,3.8,27.3
					l-8.3,11c-6.5,8.6-18.7,10.3-27.3,3.8l-28-21.1c0,0,0,0,0,0l-36.4-27.4c-8.6-6.5-10.3-18.7-3.8-27.3l8.3-11
					c6.5-8.6,18.7-10.3,27.3-3.8l5.3,4c0.2-0.5,0.5-1,0.7-1.4c0.3-0.6,0.6-1.1,1-1.6l8.5-12.9l0,0l36.5-55.3h0l36.5-55.3h0
					l36.5-55.3l0,0l36.5-55.3h0l36.5-55.3h0l40.8-61.6c0,0,0,0,0,0c0.3-0.4,0.6-0.8,0.9-1.1c0,0,0-0.1,0.1-0.1
					c0.3-0.3,0.7-0.6,1-0.9c3.7-8.5,5.4-17.9,5.4-27.5c0-2.6-0.1-5.2-0.4-7.8c-2-20.9-11.5-42.3-25.2-58.3c-1.5-1.7-3-3.3-4.5-4.9
					c-1-1-2-2-3-3c-0.1,0-0.1-0.1-0.2-0.2c-1.1-1-2.1-1.9-3.2-2.8c0,0,0,0,0,0l-14.3-11.9L1422,90.6c2.8,0.6,5.5,1.2,8.3,1.8
					c0.2,0,0.3,0.1,0.5,0.1c0,0,0,0,0,0c0.6,0.1,1.2,0.3,1.7,0.4c2,0.5,4,1,6,1.5c0.2,0.1,0.4,0.1,0.6,0.2c0,0,0,0,0,0
					c0.6,0.2,1.2,0.3,1.8,0.5c1.9,0.5,3.9,1,5.8,1.6c0.2,0,0.3,0.1,0.5,0.1c0,0,0,0,0,0c0.6,0.2,1.2,0.4,1.9,0.6
					c1.9,0.6,3.8,1.1,5.7,1.7c0.2,0.1,0.5,0.1,0.7,0.2l0,0c6.8,2.2,13.6,4.6,20.2,7.1c4.9,1.9,9.7,3.9,14.4,6
					c4.7,2.1,9.4,4.3,14,6.6c6.9,3.4,13.6,7,20.2,10.8c2.2,1.3,4.4,2.5,6.5,3.8c8.6,5.2,16.9,10.6,25,16.2c10,7,19.6,14.3,28.7,21.7
					c7.3,5.9,14.2,11.9,20.8,18c59.6,54.2,93.1,109.2,93.1,109.2L917.4,1335.3z"/>
				<path d="M917.4,1335.3c0,0-3.5-3-9.5-7.2L917.4,1335.3z"/>
				<path class="st5" d="M1584.2,171.4c7.3,5.9,14.2,11.9,20.8,18C1598.5,183.3,1591.5,177.3,1584.2,171.4z"/>
				<path class="st5" d="M1475.5,106.4c4.9,1.9,9.7,3.9,14.4,6C1485.2,110.3,1480.4,108.3,1475.5,106.4z"/>
				<path class="st5" d="M1530.6,133.6c8.6,5.2,16.9,10.6,25,16.2C1547.6,144.1,1539.2,138.7,1530.6,133.6z"/>
				<path class="st5" d="M1555.6,149.7c10,7,19.6,14.3,28.7,21.7C1575.2,164,1565.6,156.7,1555.6,149.7z"/>
				<path class="st5" d="M1605.1,189.3c59.6,54.2,93.1,109.2,93.1,109.2L917.4,1335.3l780.8-1036.7
					C1698.2,298.5,1664.7,243.5,1605.1,189.3z"/>
				<path class="st5" d="M1503.9,119c6.9,3.4,13.6,7,20.2,10.8C1517.5,126,1510.8,122.4,1503.9,119z"/>
				<polygon class="st5" points="648.6,1132.8 1422,90.6 648.6,1132.8 648.6,1132.8 				"/>
				<path class="st5" d="M699,1214c0.3,2.6,0.4,5.2,0.4,7.8C699.4,1219.2,699.2,1216.6,699,1214z"/>
				<path class="st6" d="M1449,97.3C1449,97.3,1449,97.3,1449,97.3c-0.6-0.2-1.2-0.4-1.8-0.6c0.1,0,0.1,0,0.2,0
					C1447.9,96.9,1448.4,97.1,1449,97.3z"/>
				<path class="st6" d="M1455.4,99.2c-0.2-0.1-0.5-0.1-0.7-0.2c0,0,0,0,0,0C1454.9,99.1,1455.1,99.1,1455.4,99.2z"/>
				<path class="st6" d="M1438.8,94.4c0.1,0,0.2,0.1,0.3,0.1c-0.2-0.1-0.4-0.1-0.6-0.2c0,0,0,0,0,0
					C1438.6,94.4,1438.7,94.4,1438.8,94.4z"/>
				<path class="st6" d="M1430.4,92.4c0.1,0,0.2,0.1,0.4,0.1c-0.2,0-0.3-0.1-0.5-0.1c0,0,0,0,0,0
					C1430.3,92.3,1430.4,92.4,1430.4,92.4z"/>
				<path class="st6" d="M666.3,1147.7c1,1,2,1.9,3,3C668.3,1149.7,667.3,1148.7,666.3,1147.7z"/>
				<path class="st6" d="M666.1,1147.6c-1.1-1-2.1-1.9-3.2-2.8C664,1145.6,665,1146.6,666.1,1147.6z"/>
				<path class="st6" d="M648.6,1132.8L648.6,1132.8l21.8,16.4l767.1-1026.1c-8.7-3.8-16.8-7-23.9-9.7c-0.3-0.1-0.5-0.2-0.8-0.3
					c-0.9-0.3-1.8-0.7-2.7-1c-1.1-0.4-2.2-0.8-3.3-1.2l15.2-20.5L648.6,1132.8z"/>
				<path class="st7" d="M1440.9,95c1.9,0.5,3.9,1,5.8,1.6C1444.7,96,1442.8,95.5,1440.9,95z"/>
				<path class="st7" d="M1430.3,92.3c-2.7-0.6-5.5-1.2-8.3-1.8C1424.8,91.1,1427.5,91.7,1430.3,92.3
					C1430.3,92.3,1430.3,92.3,1430.3,92.3z"/>
				<path class="st7" d="M1410.1,112.2c-1.1-0.4-2.2-0.8-3.3-1.2C1407.9,111.4,1409,111.8,1410.1,112.2z"/>
				<path class="st7" d="M1413.6,113.5c-0.3-0.1-0.5-0.2-0.8-0.3C1413.1,113.3,1413.3,113.4,1413.6,113.5z"/>
				<path class="st7" d="M1454.6,99C1454.6,99,1454.6,99,1454.6,99c-1.9-0.6-3.8-1.2-5.7-1.7c0,0,0,0,0,0
					C1450.9,97.8,1452.8,98.4,1454.6,99z"/>
				<path class="st7" d="M1438.5,94.3C1438.5,94.3,1438.5,94.3,1438.5,94.3c-2-0.5-4-1-6-1.5C1434.5,93.4,1436.5,93.8,1438.5,94.3z"
					/>
				<path class="st5" d="M1410.1,112.2c0.9,0.3,1.8,0.7,2.7,1c0.3,0.1,0.5,0.2,0.8,0.3c7.1,2.6,15.2,5.8,23.9,9.7L670.4,1149.2
					l131.2,98.8l752.1-1041.9c-30.3-39.7-79-66.8-116.3-83l17.9-23.9l0,0c-0.2-0.1-0.5-0.1-0.7-0.2c-1.9-0.6-3.8-1.2-5.7-1.7
					c-0.6-0.2-1.1-0.3-1.7-0.5c-0.1,0-0.1,0-0.2,0c0,0,0,0,0,0c-0.2,0-0.3-0.1-0.5-0.1c-1.9-0.5-3.8-1.1-5.8-1.6
					c-0.6-0.2-1.2-0.3-1.8-0.5c0,0,0,0,0,0c-0.1,0-0.2-0.1-0.3-0.1c-0.1,0-0.2,0-0.3-0.1c-2-0.5-4-1-6-1.5c-0.6-0.1-1.2-0.3-1.7-0.4
					c0,0,0,0,0,0c-0.1,0-0.2-0.1-0.4-0.1c0,0-0.1,0-0.1,0c-2.7-0.6-5.5-1.2-8.3-1.8l-15.2,20.5
					C1407.9,111.4,1409,111.8,1410.1,112.2z"/>
				<path class="st7" d="M1605.1,189.3c-6.6-6-13.6-12-20.8-18c-9.1-7.4-18.6-14.7-28.7-21.7c-8-5.6-16.3-11-25-16.2
					c-2.2-1.3-4.3-2.6-6.5-3.8c-6.6-3.8-13.3-7.4-20.2-10.8c-4.6-2.3-9.3-4.5-14-6.6c-4.7-2.1-9.5-4.1-14.4-6
					c-6.6-2.6-13.3-5-20.2-7.1l-17.9,23.9c37.3,16.2,85.9,43.3,116.3,83l-232.9,322.6l-108.8,1.1l98.3,13.4l-32.1,44.4l-167.8,1.7
					l151.7,20.7h0l-28.1,38.9l0,0l-138.9,1.4l125.5,17.1l0,0l-34.7,48.1l0,0l-99.8,1l90.2,12.3l-374.8,519.1l106.3,80
					c6,4.2,9.5,7.2,9.5,7.2l780.8-1036.7C1698.2,298.5,1664.7,243.5,1605.1,189.3z"/>
				<path class="st8" d="M801.6,1248.1l-131.2-98.8l-21.8-16.4l0,0l14.3,11.9c0,0,0,0,0,0c1.1,0.9,2.2,1.9,3.2,2.8
					c0.1,0,0.1,0.1,0.2,0.2c1,1,2,1.9,3,3c1.6,1.6,3.1,3.2,4.5,4.9c13.7,16,23.2,37.4,25.2,58.3c0.3,2.6,0.4,5.2,0.4,7.8
					c0,9.6-1.6,19-5.4,27.5c-0.4,0.3-0.7,0.6-1,0.9c0.3-0.3,0.7-0.6,1-0.9c-1.3,2.9-2.8,5.8-4.5,8.5l0,0l77.5,58.4l-16.1,19.3
					l16.6,3.7l-67.7,79.4l83.8-98.2c0.2-0.3,0.4-0.5,0.6-0.8c0.1-0.1,0.1-0.2,0.2-0.2c0.1-0.2,0.2-0.4,0.3-0.6
					c0-0.1,0.1-0.2,0.1-0.3c0,0,0,0,0,0c0.1-0.2,0.2-0.5,0.3-0.7c0,0,0,0,0,0c0-0.1,0-0.1,0.1-0.2c0,0,0,0,0,0
					c0.1-0.3,0.2-0.6,0.2-1c42.2-37.6,109.3,2.8,132,18.8l-9.5-7.2L801.6,1248.1z"/>
				<polygon class="st8" points="706.2,1388.8 750.9,1335.4 651.3,1313 614.7,1368.3 				"/>
				<polygon class="st8" points="616.7,1495.7 661.4,1442.2 676.6,1445.6 722,1392.4 706.2,1388.8 661.4,1442.2 578.2,1423.5 
					541.6,1478.8 				"/>
				<path class="st8" d="M459.1,1603.8c-0.3,0.5-0.5,0.9-0.7,1.4l0,0C458.6,1604.7,458.8,1604.3,459.1,1603.8z"/>
				<path class="st8" d="M784.7,1318.6c-0.1,0.2-0.2,0.4-0.3,0.6C784.5,1319,784.6,1318.8,784.7,1318.6z"/>
				<polygon class="st8" points="471.6,1615.2 489.4,1628.6 489.4,1628.6 				"/>
				<path class="st8" d="M784.2,1319.5c-0.2,0.3-0.4,0.5-0.6,0.8C783.8,1320,784,1319.8,784.2,1319.5z"/>
				<path class="st8" d="M692,1251.4c0.3-0.4,0.6-0.8,0.9-1.1C692.6,1250.6,692.3,1251,692,1251.4z"/>
				<path class="st5" d="M485,1666.9l8.3-11c6.5-8.6,4.8-20.8-3.8-27.3l-17.8-13.4l-13.3-10l0,0l0,0l-5.3-4
					c-8.6-6.5-20.8-4.8-27.3,3.8l-8.3,11c-6.5,8.6-4.8,20.8,3.8,27.3l36.4,27.4C466.3,1677.3,478.5,1675.5,485,1666.9z"/>
				<path class="st9" d="M499.2,1636L499.2,1636l-9.8-7.4c0,0,0,0,0,0c8.6,6.5,10.3,18.7,3.8,27.3l-8.3,11
					c-6.5,8.6-18.7,10.3-27.3,3.8c0,0,0,0,0,0l28,21.1c8.6,6.5,20.8,4.8,27.3-3.8l8.3-11c6.5-8.6,4.8-20.8-3.8-27.3l-9.4-7.1
					l-4.6-3.5L499.2,1636z"/>
				<polygon class="st10" points="572,1549.1 616.7,1495.7 616.7,1495.7 541.6,1478.8 541.6,1478.8 505.1,1534 505.1,1534 				"/>
				<path class="st10" d="M508.1,1642.6c0.4-0.4,0.8-0.7,1.2-1.1c0.5-0.4,0.9-0.9,1.3-1.4c-0.4,0.5-0.9,0.9-1.3,1.4
					C508.9,1641.9,508.5,1642.3,508.1,1642.6z"/>
				<path class="st10" d="M458.3,1605.2l13.3,10l17.8,13.4l9.8,7.4l28-33.5l-58.7-13.2l0,0l-8.5,12.9c-0.4,0.5-0.7,1.1-1,1.6
					C458.8,1604.3,458.6,1604.7,458.3,1605.2L458.3,1605.2z"/>
				<polygon class="st10" points="661.4,1442.2 706.2,1388.8 706.2,1388.8 614.7,1368.3 614.7,1368.3 578.2,1423.5 578.2,1423.5 
									"/>
				<path class="st10" d="M750.9,1335.4L750.9,1335.4l16.1-19.3l-77.5-58.4l0,0c1.8-2.7,3.3-5.5,4.5-8.5c-0.4,0.3-0.7,0.6-1,0.9
					c0,0,0,0.1-0.1,0.1c-0.3,0.3-0.6,0.7-0.9,1.1c0,0,0,0,0,0l-40.8,61.6h0L750.9,1335.4z"/>
				<path class="st10" d="M784.7,1318.6c-0.1,0.2-0.2,0.4-0.3,0.6c-0.1,0.1-0.1,0.2-0.2,0.2c-0.2,0.3-0.4,0.5-0.6,0.8
					c0.2-0.3,0.4-0.5,0.6-0.8c0.1-0.1,0.1-0.2,0.2-0.2C784.5,1319,784.6,1318.8,784.7,1318.6c0-0.1,0.1-0.2,0.1-0.3c0,0,0,0,0,0
					C784.8,1318.4,784.7,1318.5,784.7,1318.6z"/>
				<path class="st10" d="M785.1,1317.6C785.1,1317.6,785.1,1317.6,785.1,1317.6c0-0.1,0-0.1,0.1-0.2c0,0,0,0,0,0
					C785.1,1317.5,785.1,1317.6,785.1,1317.6z"/>
				<polygon class="st11" points="527.3,1602.5 540.2,1605.4 585.7,1552.1 572,1549.1 				"/>
				<polygon class="st11" points="750.9,1335.4 750.9,1335.4 706.2,1388.8 706.2,1388.8 722,1392.4 676.6,1445.6 661.4,1442.2 
					616.7,1495.7 616.7,1495.7 631.1,1498.9 699.7,1418.5 767.5,1339.1 				"/>
				<path class="st8" d="M616.7,1495.7l-44.7,53.4l-66.9-15l-36.5,55.3l58.7,13.2l-28,33.5l0,0l4.2,3.2l4.6,3.5
					c0.4-0.4,0.8-0.7,1.2-1.1c-0.4,0.4-0.8,0.7-1.2,1.1c0.4-0.4,0.8-0.7,1.2-1.1c0.4-0.5,0.9-0.9,1.3-1.4l29.7-34.8l0,0l67.6-79.2
					l23.3-27.3L616.7,1495.7z M540.2,1605.4l-13-2.9l44.7-53.4l13.7,3.1L540.2,1605.4z"/>
			</g>
			<path d="M1132.3,979.9c-237.3-5.4-506.9,16.5-780.2,94.8c0,0,133.4,325.7,142,331.2c5.7,3.6,248.6-57.8,638.2-51.5
				c389.6-6.3,632.5,55.2,638.2,51.5c8.6-5.5,142-331.2,142-331.2C1639.2,996.5,1369.6,974.6,1132.3,979.9z"/>
			<path class="st5" d="M1355.6,386.8"/>
			<g>
				<g>
					<polygon points="1364.5,563.6 1131.2,566 1329.6,593.1 					"/>
					<polygon points="1349.2,624.6 1115.9,627 1314.3,654 					"/>
					<polygon points="1340.2,690.9 1106.9,693.3 1305.3,720.3 					"/>
					<polygon points="1466.1,504.1 1232.7,506.5 1431.2,533.5 					"/>
					<polygon points="1387.1,772 1153.7,774.4 1352.2,801.4 					"/>
				</g>
				<g>
					<g>
						<circle class="st12" cx="1495.3" cy="689.8" r="178.9"/>
					</g>
					<g>
						
							<ellipse transform="matrix(0.9718 -0.2358 0.2358 0.9718 -95.4523 360.1746)" class="st13" cx="1458" cy="579.1" rx="76.9" ry="52.4"/>
					</g>
					<path class="st14" d="M1330.4,620.4c-11.4,27.1-16.3,57.4-13,88.7c10.6,98.3,98.9,169.3,197.2,158.7
						c50.1-5.4,93.2-31.1,121.9-68C1408.1,852.8,1346.8,703.7,1330.4,620.4z"/>
					<path class="st2" d="M1613.6,555.5c-3.4-3-6.9-5.9-10.6-8.6c1.8,22.7,1.5,58.9-10.6,100.1c-11.7,40-32.1,76.4-60.7,108.2
						c-32.2,35.8-74.8,65.7-126.8,89.1c5.3,3.1,10.7,5.9,16.3,8.5C1603,746.2,1622.1,617.1,1613.6,555.5z"/>
					<g>
						<g>
							<g>
								<path class="st15" d="M1403.9,812.5c-2.1,0.2-4.2-0.8-5.2-2.8c-1.3-2.6-0.3-5.7,2.2-7.1c8.7-4.5,17.2-9.3,25.3-14.3
									c2.5-1.5,5.7-0.7,7.2,1.7c1.5,2.5,0.7,5.7-1.7,7.2c-8.3,5.1-17,10-25.9,14.6C1405.1,812.2,1404.5,812.4,1403.9,812.5z
									 M1453.9,781.7c-1.8,0.2-3.7-0.6-4.8-2.1c-1.7-2.3-1.2-5.6,1.2-7.3c7.9-5.7,15.5-11.8,22.6-18c2.2-1.9,5.5-1.7,7.4,0.5
									c1.9,2.2,1.7,5.5-0.5,7.4c-7.4,6.4-15.2,12.6-23.3,18.6C1455.6,781.3,1454.7,781.6,1453.9,781.7z M1498.1,743.1
									c-1.5,0.2-3-0.3-4.2-1.4c-2.1-2-2.2-5.3-0.2-7.4c6.7-7,13-14.4,18.8-21.9c1.8-2.3,5.1-2.7,7.4-1c2.3,1.8,2.7,5.1,1,7.4
									c-6,7.8-12.5,15.4-19.5,22.7C1500.4,742.5,1499.3,743,1498.1,743.1z M1533.8,696.6c-1.1,0.1-2.3-0.1-3.3-0.7
									c-2.5-1.5-3.3-4.7-1.7-7.2c5-8.2,9.6-16.7,13.6-25.4c1.2-2.6,4.3-3.8,7-2.5c2.6,1.2,3.8,4.3,2.5,7c-4.2,9-9,17.9-14.2,26.4
									C1536.9,695.6,1535.4,696.5,1533.8,696.6z M1558.7,643.5c-0.7,0.1-1.5,0-2.2-0.2c-2.7-0.9-4.2-3.9-3.3-6.6
									c3.1-9,5.6-18.4,7.7-27.8c0.6-2.8,3.4-4.6,6.2-4c2.8,0.6,4.6,3.4,4,6.2c-2.1,9.8-4.8,19.5-8,28.9
									C1562.4,641.9,1560.6,643.3,1558.7,643.5z M1571.3,586.1c-0.4,0-0.8,0-1.1,0c-2.9-0.3-5-2.9-4.6-5.8
									c1-9.6,1.6-19.2,1.6-28.8c0-2.9,2.3-5.2,5.2-5.2c2.9,0,5.2,2.4,5.2,5.2c0,9.9-0.6,20-1.7,29.9
									C1575.6,584,1573.7,585.9,1571.3,586.1z"/>
							</g>
						</g>
						<g>
							<g>
								<path class="st15" d="M1363.9,830.9c-2.3,0.2-4.5-1-5.4-3.2c-1.1-2.7,0.2-5.7,2.9-6.8c4.5-1.8,8.9-3.7,13.3-5.6
									c2.7-1.2,5.7,0,6.9,2.7c1.2,2.6,0,5.7-2.7,6.9c-4.4,2-9,3.9-13.5,5.8C1364.8,830.8,1364.3,830.9,1363.9,830.9z"/>
							</g>
						</g>
					</g>
					<g>
						<g>
							<g>
								<path class="st15" d="M1613.9,562.2c-2.9,0.3-5.4-1.7-5.8-4.6c-1-8.8-2.2-13.7-2.2-13.8c-0.7-2.8,1.1-5.6,3.9-6.3
									c2.8-0.7,5.6,1.1,6.3,3.9c0.1,0.2,1.3,5.6,2.4,14.9C1618.9,559.3,1616.9,561.9,1613.9,562.2
									C1614,562.2,1614,562.2,1613.9,562.2z"/>
							</g>
						</g>
						<g>
							<g>
								<path class="st15" d="M1446.6,847.3c-2.1,0.2-4.2-0.8-5.2-2.8c-1.3-2.6-0.3-5.7,2.2-7.1c8.7-4.5,17.2-9.3,25.3-14.3
									c2.5-1.5,5.7-0.7,7.2,1.7c1.5,2.5,0.7,5.7-1.7,7.2c-8.3,5.1-17,10-25.9,14.6C1447.8,847,1447.2,847.2,1446.6,847.3z
									 M1496.6,816.5c-1.8,0.2-3.7-0.6-4.8-2.1c-1.7-2.3-1.2-5.6,1.2-7.3c7.9-5.7,15.5-11.8,22.6-18c2.2-1.9,5.5-1.7,7.4,0.5
									c1.9,2.2,1.7,5.5-0.5,7.4c-7.4,6.4-15.2,12.6-23.3,18.6C1498.3,816.1,1497.4,816.4,1496.6,816.5z M1540.8,777.9
									c-1.5,0.2-3-0.3-4.2-1.4c-2.1-2-2.2-5.3-0.2-7.4c6.7-7,13-14.4,18.8-21.9c1.8-2.3,5.1-2.7,7.4-1c2.3,1.8,2.7,5.1,1,7.4
									c-6,7.8-12.5,15.4-19.5,22.7C1543.1,777.3,1542,777.8,1540.8,777.9z M1576.5,731.4c-1.1,0.1-2.3-0.1-3.3-0.7
									c-2.5-1.5-3.3-4.7-1.7-7.2c5-8.2,9.6-16.7,13.6-25.4c1.2-2.6,4.3-3.8,7-2.5c2.6,1.2,3.8,4.3,2.5,7c-4.2,9-9,17.9-14.2,26.4
									C1579.5,730.4,1578.1,731.2,1576.5,731.4z M1601.3,678.3c-0.7,0.1-1.5,0-2.2-0.2c-2.7-0.9-4.2-3.9-3.3-6.6
									c3.1-9,5.6-18.4,7.7-27.8c0.6-2.8,3.4-4.6,6.2-4c2.8,0.6,4.6,3.4,4,6.2c-2.1,9.8-4.8,19.5-8,28.9
									C1605.1,676.7,1603.3,678.1,1601.3,678.3z M1614,620.9c-0.4,0-0.8,0-1.1,0c-2.9-0.3-5-2.9-4.6-5.8c1-9.6,1.6-19.2,1.6-28.8
									c0-2.9,2.3-5.2,5.2-5.2c2.9,0,5.2,2.4,5.2,5.2c0,9.9-0.6,20-1.7,29.9C1618.3,618.8,1616.4,620.7,1614,620.9z"/>
							</g>
						</g>
						<g>
							<g>
								<path class="st15" d="M1406.5,865.7c-2.3,0.2-4.5-1-5.4-3.2c-1.1-2.7,0.2-5.7,2.9-6.8c4.5-1.8,8.9-3.7,13.3-5.6
									c2.7-1.2,5.7,0,6.9,2.7c1.2,2.6,0,5.7-2.7,6.9c-4.4,2-9,3.9-13.5,5.8C1407.5,865.6,1407,865.7,1406.5,865.7z"/>
							</g>
						</g>
					</g>
				</g>
				<g>
					<path d="M1388.6,851.3l-7.5-18.3c56.5-23.1,102.1-53.5,135.5-90.6c26.6-29.4,45.6-63.1,56.6-100.1
						c18.8-63.3,7.2-115.3,7.1-115.8l19.3-4.5c0.5,2.3,12.8,56.8-7.1,124.9c-11.7,40-32.1,76.4-60.7,108.2
						C1496.3,794.6,1448.1,827,1388.6,851.3z"/>
				</g>
				<g>
					<path d="M1473.6,489.3c-110.6,12-190.8,111.6-178.8,222.2c12,110.6,111.6,190.8,222.2,178.8c110.6-12,190.8-111.6,178.8-222.2
						S1584.2,477.3,1473.6,489.3z M1514.6,867.7c-98.3,10.6-186.5-60.4-197.2-158.7s60.4-186.5,158.7-197.2
						c98.3-10.6,186.5,60.4,197.2,158.7S1612.8,857.1,1514.6,867.7z"/>
				</g>
			</g>
		</g>
	</g>
</g>
<g id="TEXT">
	<g>
		<g>
			<path class="st6" d="M725.7,1292.5c-11.7,7.8-25,13.2-38.7,16.5c-14,3.3-28.6,4.7-42.9,3.8c-17.1-1-34.1-7.2-48.6-15.6
				c-13.7-8-26.2-20.2-35.2-33.3c-9.5-13.9-16.6-28.1-20.6-44.2c-7.8-31.5-0.9-66.5,20.6-92.8c14.5-18.7,34.2-32.6,56.4-40.7
				c4.3-1.6,9.6-3.1,15.9-4.4c6.3-1.3,12.8-2.4,19.6-3.1c6.8-0.8,13.5-1.1,20.1-1c6.6,0.1,12.5,0.8,17.7,1.9
				c3,18.7,5.9,37.4,8.9,56.1c-5.4-3.1-11.3-5.7-17.7-7.6c-6.4-2-12.9-3.1-19.5-3.5c-6.7-0.4-13.2,0.2-19.7,1.8
				c-6.4,1.6-12.5,4.3-18,8.1c-24.7,16.2-31.8,45.3-26.2,72.9c3.3,16.2,11.1,32.8,23.8,43.8c13.3,11.5,32.4,16.1,49,12.5
				c17.5-3.7,34.6-11.4,46.3-26.4C719.9,1255.7,722.8,1274.1,725.7,1292.5z"/>
			<path class="st6" d="M788.7,1215c2.3,17.7,4.6,35.4,6.9,53.1c4.7,9.2,7.1,13.8,11.7,23c-24.1,3.1-48.1,6.5-72.1,10.2
				c1.9-10.1,2.9-15.2,4.9-25.3c-9.2-60.7-18.4-121.5-27.6-182.2c-5.4-9.2-8.2-13.8-13.7-23c31.4-4.8,62.8-9.1,94.3-13
				c51.2-6.1,92.1,17.1,97.2,71c1.3,13.9-1,28.4-7.3,40.9c-6.3,12.6-17.9,22.5-30.4,28.7c14.3,19.6,28.3,39.3,42.2,59.2
				c8.7,7.2,17.3,14.5,25.9,21.8c-29.7,2.5-59.3,5.5-89,8.9c2.3-10,3.5-15.1,5.8-25.1c-11.9-16.7-23.8-33.4-36-49.9
				c-2.2,0.5-4.4,0.8-6.5,1.1C793.1,1214.4,790.9,1214.7,788.7,1215z M786.8,1106.1c-4.8,0.6-7.2,0.9-12,1.5
				c2.7,20.6,5.4,41.3,8.1,61.9c5.1-0.7,7.6-1,12.7-1.6c10.8-1.2,22.8-3.5,31.5-10.3c3.6-3,6.2-7.1,7.8-12.3
				c1.5-5.2,2-10.5,1.4-15.9c-0.6-5.4-2.3-10.3-5.1-14.6c-2.8-4.3-6.9-7.2-12.2-8.6C808.7,1103.4,797.1,1104.7,786.8,1106.1z"/>
			<path class="st6" d="M934.7,1253.8c-4.7-61.4-9.4-122.7-14.1-184.1c-4.3-9.5-6.5-14.3-10.9-23.8c26.1-2,52.2-3.7,78.3-5.2
				c-2.9,10-4.3,15-7.1,25c3.4,61.4,6.8,122.9,10.2,184.3c3.9,9.5,5.8,14.3,9.7,23.8c-24,1.3-48,2.9-71.9,4.7
				C931.2,1268.6,932.4,1263.7,934.7,1253.8z"/>
			<path class="st6" d="M1172.6,1260.5c-12.8,5.7-26.8,8.8-40.8,9.7c-14.3,0.9-28.8-0.3-42.8-3.6c-16.6-3.9-32.3-12.9-45-23.7
				c-12.1-10.3-22.3-24.4-28.9-38.8c-7-15.3-11.5-30.6-12.7-47.1c-2.4-32.3,10.3-65.7,35.8-88c17.3-15.9,39.1-26.3,62.2-30.5
				c4.5-0.8,10-1.4,16.4-1.6c6.4-0.2,13-0.2,19.8,0.2c6.8,0.4,13.4,1.2,19.9,2.4c6.5,1.2,12.2,2.9,17.1,4.9
				c-0.2,18.9-0.5,37.9-0.7,56.8c-4.8-4-10.2-7.5-16.1-10.5c-5.9-3-12.1-5.2-18.6-6.7c-6.5-1.5-13-2-19.6-1.6
				c-6.6,0.4-13,2.1-19.1,4.9c-27,11.8-38.8,39.3-38,67.3c0.5,16.5,5.3,34.1,16,47.3c11.1,13.6,29,21.4,45.9,20.7
				c17.8-0.7,36-5.4,50-18.1C1173.1,1223.2,1172.9,1241.8,1172.6,1260.5z"/>
			<path class="st6" d="M1293.4,1261.9c-10-31.8-20.3-63.4-31-95c-6.6,8.6-9.9,12.9-16.4,21.5c-0.8,19.8-1.6,39.6-2.4,59.4
				c3,10,4.4,14.9,7.3,24.9c-23.6-1-47.2-1.7-70.8-2.1c3.5-9.8,5.3-14.6,8.8-24.4c1.2-61.5,2.4-123,3.7-184.6
				c-3.5-9.8-5.3-14.7-8.9-24.4c25.7,0.5,51.4,1.3,77.1,2.3c-3.9,9.8-5.9,14.7-9.8,24.5c-0.6,15.4-1.2,30.7-1.9,46.1
				c14.1-18.6,28.4-37.1,42.9-55.4c-0.9-5.5-1.3-8.2-2.2-13.7c28,1.6,55.9,3.5,83.8,5.8c-9.6,5.5-14.3,8.3-23.8,13.8
				c-16.1,18.8-32,37.8-47.7,57c17.3,48.1,33.7,96.5,49.3,145.2c6.2,7,9.2,10.6,15.3,17.6c-26.5-2.3-53-4.2-79.6-5.8
				C1289.7,1269.6,1291,1267,1293.4,1261.9z"/>
			<path class="st6" d="M1374.9,1281.2c4.1-9.4,6.1-14.1,10.3-23.4c5.8-61.3,11.6-122.5,17.4-183.8c-2.8-10.1-4.2-15.2-7.1-25.3
				c51.9,4.8,103.5,11,155.1,18.4c-2.6,17.8-5.2,35.5-7.8,53.3c-10-4.8-15-7.2-25.1-11.9c-19.1-2.6-38.2-5-57.4-7.3
				c-1.6,13.9-3.2,27.8-4.8,41.7c14.1,1.7,28.1,3.4,42.2,5.2c8.6-1.5,12.9-2.2,21.5-3.7c-2.7,19-5.3,38.1-8,57.1
				c-7.9-3.4-11.9-5-19.8-8.4c-13.7-1.8-27.4-3.5-41.2-5.1c-2.1,18.1-4.2,36.2-6.3,54.4c21.1,2.5,42.2,5.2,63.2,8.1
				c8.2-2.6,12.3-3.8,20.6-6.3c-2.6,18.1-5.1,36.1-7.7,54.2C1471.8,1291.5,1423.4,1285.7,1374.9,1281.2z"/>
			<path class="st6" d="M1681.9,1135.9c-10.6,53.3-21.1,106.6-31.7,159.9c1,10.3,1.5,15.5,2.5,25.8c-23.7-4.7-47.4-9.1-71.1-13.3
				c5.2-9,7.8-13.4,13-22.4c9.4-53.7,18.9-107.4,28.3-161.1c-15.6-2.7-31.1-5.3-46.7-7.8c-9.1,3.4-13.6,5-22.6,8.5
				c2.9-18.9,5.7-37.8,8.6-56.8c66,10.1,131.6,22.4,196.8,36.8c-4.1,17.9-8.2,35.8-12.3,53.6c-7.2-5.5-10.8-8.2-18-13.6
				C1713.1,1142.2,1697.5,1139,1681.9,1135.9z"/>
		</g>
	</g>
	<text transform="matrix(1 0 0 1 995.5396 1515.4746)" class="st6 st16 st17">club</text>
</g>
</svg>
